<?xml version="1.0" encoding="UTF-8" standalone="no"?>
<svg
   width="403.47522"
   height="303.19128"
   viewBox="0 0 403.47522 303.19128"
   version="1.1"
   xml:space="preserve"
   xmlns="http://www.w3.org/2000/svg"
   xmlns:svg="http://www.w3.org/2000/svg">
<path d="m 285.16519,268.87603 c -0.41441,-0.90444 -0.75429,-1.89488 -1.139,-2.91976 -1.49223,-3.97546 -3.06025,-8.72779 -4.70405,-14.25698 L 206.17687,-1.49964e-6 H 129.27489 L 39.113955,242.63901 C 27.917515,272.83996 14.879505,289.41369 1.4554122e-5,292.36012 v 10.82815 H 91.928815 v -10.82815 c -7.95536,-0.58929 -14.14288,-3.09376 -18.56255,-7.51342 -4.41964,-4.56697 -6.62948,-10.53351 -6.62948,-17.8996 0,-4.8616 0.58931,-10.38618 1.76786,-16.5737 1.17856,-6.33483 2.94645,-12.89065 5.3036,-19.66746 l 7.29242,-20.99335 94.359615,-2.9e-4 5.96651,21.65659 c 2.20984,7.95538 3.83039,14.95319 4.86163,20.99336 1.17857,6.04018 1.76787,11.63844 1.76787,16.79468 0,6.62949 -2.13617,11.93308 -6.40851,15.91076 -4.2723,3.97768 -10.23886,6.4085 -17.8996,7.29243 v 10.82815 l 131.46815,0.003 h 7.67308 96.16616 l 4.41965,-93.47897 h -22.31925 c -4.41966,20.92579 -8.76564,38.36416 -13.03798,47.50076 -4.12501,9.13662 -9.28128,15.32604 -15.46879,18.56807 -6.18752,3.24204 -15.76341,4.86117 -28.72776,4.86117 0,0 -20.85231,-5e-5 -21.03202,0 -5.21296,-0.1607 -13.92604,-3.47677 -17.72423,-11.76627 z M 147.61645,20.993419 h 40.43984 l 74.68369,259.645951 -40.44025,-10e-4 z m -14.36388,38.45099 35.7992,124.413251 H 89.498005 Z"/>
</svg>
