<?xml version="1.0" encoding="UTF-8" standalone="no"?>
<svg
   width="535.38086"
   height="535.38086"
   viewBox="0 0 535.38086 535.38086"
   version="1.1"
   id="svg8"
   xml:space="preserve"
   xmlns:xlink="http://www.w3.org/1999/xlink"
   xmlns="http://www.w3.org/2000/svg"
   xmlns:svg="http://www.w3.org/2000/svg"
   xmlns:rdf="http://www.w3.org/1999/02/22-rdf-syntax-ns#"
   xmlns:cc="http://creativecommons.org/ns#"
   xmlns:dc="http://purl.org/dc/elements/1.1/"><defs
     id="defs2"><linearGradient
       id="linearGradient1"><stop
         style="stop-color:#111c18;stop-opacity:1;"
         offset="0"
         id="stop1" /><stop
         style="stop-color:#002818;stop-opacity:0.81412637;"
         offset="1"
         id="stop2" /></linearGradient><linearGradient
       xlink:href="#linearGradient1"
       id="linearGradient2"
       x1="280"
       y1="245.71428"
       x2="812.85712"
       y2="777.85712"
       gradientUnits="userSpaceOnUse" /></defs><metadata
     id="metadata5"><rdf:RDF><cc:Work
         rdf:about=""><dc:format>image/svg+xml</dc:format><dc:type
           rdf:resource="http://purl.org/dc/dcmitype/StillImage" /></cc:Work></rdf:RDF></metadata><g
     id="layer1"
     transform="translate(-279.81226,-242.45691)"><path
       id="rect1"
       style="fill:url(#linearGradient2);stroke-width:1.5"
       d="m 323.45085,244.45691 h 448.10368 a 43.638591,43.638591 45 0 1 43.63859,43.63859 l 0,448.10368 a 43.638591,43.638591 135 0 1 -43.63859,43.63859 H 323.45085 A 43.638591,43.638591 45 0 1 279.81226,736.19918 V 288.0955 a 43.638591,43.638591 135 0 1 43.63859,-43.63859 z"
       transform="translate(0,-2)" /><path
       id="path1"
       style="font-size:320px;line-height:1.25;font-family:'DejaVu Sans Mono';-inkscape-font-specification:'DejaVu Sans Mono';fill:#ffffff;stroke-width:1.41429"
       d="m 635.93027,611.42773 c -0.41441,-0.90444 -0.75429,-1.89488 -1.139,-2.91976 -1.49223,-3.97546 -3.06025,-8.72779 -4.70405,-14.25698 L 556.94195,342.5517 h -76.90198 l -90.16094,242.63901 c -11.19644,30.20095 -24.23445,46.77468 -39.11394,49.72111 v 10.82815 h 91.9288 v -10.82815 c -7.95536,-0.58929 -14.14288,-3.09376 -18.56255,-7.51342 -4.41964,-4.56697 -6.62948,-10.53351 -6.62948,-17.8996 0,-4.8616 0.58931,-10.38618 1.76786,-16.5737 1.17856,-6.33483 2.94645,-12.89065 5.3036,-19.66746 l 7.29242,-20.99335 94.35962,-2.9e-4 5.96651,21.65659 c 2.20984,7.95538 3.83039,14.95319 4.86163,20.99336 1.17857,6.04018 1.76787,11.63844 1.76787,16.79468 0,6.62949 -2.13617,11.93308 -6.40851,15.91076 -4.2723,3.97768 -10.23886,6.4085 -17.8996,7.29243 v 10.82815 l 131.46815,0.003 h 7.67308 96.16616 L 754.2403,552.264 h -22.31925 c -4.41966,20.92579 -8.76564,38.36416 -13.03798,47.50076 -4.12501,9.13662 -9.28128,15.32604 -15.46879,18.56807 -6.18752,3.24204 -15.76341,4.86117 -28.72776,4.86117 0,0 -20.85231,-5e-5 -21.03202,0 -5.21296,-0.1607 -13.92604,-3.47677 -17.72423,-11.76627 z M 498.38153,363.54512 h 40.43984 l 74.68369,259.64595 -40.44025,-10e-4 z m -14.36388,38.45099 35.7992,124.41325 h -79.55377 z" /></g></svg>
